<svg width="52" height="54" viewBox="0 0 52 54" fill="none" xmlns="http://www.w3.org/2000/svg">
<g filter="url(#filter0_d_2190_1334)">
<path opacity="0.4" d="M46 24C46 35.0456 37.0456 44 26 44C14.9543 44 6 35.0456 6 24C6 12.9543 14.9543 4 26 4C37.0456 4 46 12.9543 46 24Z" fill="#F9A474"/>
<path d="M46 24C46 35.0456 37.0456 44 26 44C14.9543 44 6 35.0456 6 24C6 12.9543 14.9543 4 26 4C37.0456 4 46 12.9543 46 24Z" stroke="#F9A474" stroke-width="3"/>
<path d="M6 24C10.5606 28.8578 17.8217 32 26 32C34.1784 32 41.4394 28.8578 46 24" stroke="#F9A474" stroke-width="3"/>
<path d="M26 4V44" stroke="#F9A474" stroke-width="3" stroke-linecap="round" stroke-linejoin="round"/>
<path d="M12.3112 10C11.5478 13 12.0801 18 15.1324 22C18.3416 26.2056 20.3649 32 12.7386 38" stroke="#F9A474" stroke-width="3" stroke-linecap="round" stroke-linejoin="round"/>
<path d="M39.6888 10C40.4522 13 39.9198 18 36.8676 22C33.6584 26.2056 31.6352 32 39.2614 38" stroke="#F9A474" stroke-width="3" stroke-linecap="round" stroke-linejoin="round"/>
</g>
<defs>
<filter id="filter0_d_2190_1334" x="-2" y="0" width="56" height="56" filterUnits="userSpaceOnUse" color-interpolation-filters="sRGB">
<feFlood flood-opacity="0" result="BackgroundImageFix"/>
<feColorMatrix in="SourceAlpha" type="matrix" values="0 0 0 0 0 0 0 0 0 0 0 0 0 0 0 0 0 0 127 0" result="hardAlpha"/>
<feOffset dy="4"/>
<feGaussianBlur stdDeviation="2"/>
<feComposite in2="hardAlpha" operator="out"/>
<feColorMatrix type="matrix" values="0 0 0 0 0 0 0 0 0 0 0 0 0 0 0 0 0 0 0.25 0"/>
<feBlend mode="normal" in2="BackgroundImageFix" result="effect1_dropShadow_2190_1334"/>
<feBlend mode="normal" in="SourceGraphic" in2="effect1_dropShadow_2190_1334" result="shape"/>
</filter>
</defs>
</svg>
