<svg width="50" height="53" viewBox="0 0 50 53" fill="none" xmlns="http://www.w3.org/2000/svg">
<g filter="url(#filter0_d_2190_1331)">
<path opacity="0.4" d="M41.2844 21.5912C44.215 19.5276 44.8788 15.5436 42.7686 12.6832C37.99 6.20556 29.0002 1.83413 21.984 7.88446C19.3267 10.1759 17.2119 12.9873 15.7982 16.2002L13.002 22.5548V23C13.002 28.5408 19.8547 34.9952 25.8112 36.9392C25.9388 36.9808 26.0686 37.0098 26.2014 37.0292C26.9714 36.462 27.8166 36.0076 28.8108 35.7656L38.7048 33.3564C43.7882 32.1186 45.0496 25.6486 40.7856 22.682L40.133 22.2408C40.6666 21.9726 41.0158 21.7804 41.2844 21.5912Z" fill="#F682A5"/>
<path d="M12.9652 22.4924C12.7911 27.9374 19.2073 34.6486 25.2232 36.7584M12.9652 22.4924C12.356 23.5378 6.13444 28.5254 6.02566 30.638C5.49852 34.8336 12.6266 42.7156 18.1227 42.9848C20.1751 43.276 23.022 39.8222 25.9078 37.2562C27.4972 35.8428 29.7878 35.5158 38.9566 33.2406C42.2838 32.6622 46.281 26.923 40.3554 22.0582M12.9652 22.4924C14.8216 18.09 18.031 9.5794 24.325 6.21856C26.881 4.7663 33.5198 3.42916 40.025 9.61354C42.263 11.4957 46.1424 15.6187 42.5316 20.369C40.1242 23.1746 36.4842 22.3624 36.1306 27.2146" stroke="#F682A5" stroke-width="3" stroke-linecap="round" stroke-linejoin="round"/>
</g>
<defs>
<filter id="filter0_d_2190_1331" x="-3" y="0" width="56" height="56" filterUnits="userSpaceOnUse" color-interpolation-filters="sRGB">
<feFlood flood-opacity="0" result="BackgroundImageFix"/>
<feColorMatrix in="SourceAlpha" type="matrix" values="0 0 0 0 0 0 0 0 0 0 0 0 0 0 0 0 0 0 127 0" result="hardAlpha"/>
<feOffset dy="4"/>
<feGaussianBlur stdDeviation="2"/>
<feComposite in2="hardAlpha" operator="out"/>
<feColorMatrix type="matrix" values="0 0 0 0 0 0 0 0 0 0 0 0 0 0 0 0 0 0 0.25 0"/>
<feBlend mode="normal" in2="BackgroundImageFix" result="effect1_dropShadow_2190_1331"/>
<feBlend mode="normal" in="SourceGraphic" in2="effect1_dropShadow_2190_1331" result="shape"/>
</filter>
</defs>
</svg>
