<svg width="52" height="54" viewBox="0 0 52 54" fill="none" xmlns="http://www.w3.org/2000/svg">
<g filter="url(#filter0_d_2190_1336)">
<path d="M46.002 24C46.002 35.0456 37.0476 44 26.002 44C14.9563 44 6.00195 35.0456 6.00195 24C6.00195 12.9543 14.9563 4 26.002 4C37.0476 4 46.002 12.9543 46.002 24Z" stroke="#C3B2E7" stroke-width="3"/>
<path opacity="0.4" fill-rule="evenodd" clip-rule="evenodd" d="M46.003 23.9998C46.003 29.2756 43.9602 34.0742 40.6226 37.648L33.2346 36.3108L30.7314 43.4376C29.2154 43.805 27.632 43.9998 26.003 43.9998C23.168 43.9998 20.4707 43.41 18.0273 42.3462L18.1057 34.3328L10.0095 34.4198H8.9284C7.32698 31.8012 6.311 28.7858 6.0625 25.5554L12.396 20.8774L9.11386 13.4407L9.07552 13.343C11.5658 9.39562 15.3987 6.38006 19.933 4.9375L20.0029 4.9998L26.036 9.24462L32.003 4.9998L32.08 4.93976C36.1532 6.23734 39.66 8.8045 42.1354 12.1761L42.0626 12.3915L39.6098 18.7794L45.9968 23.4966L45.9982 23.562C46.0014 23.7076 46.003 23.8536 46.003 23.9998ZM26.5876 18.6979C26.239 18.434 25.767 18.434 25.4184 18.6979L20.9129 22.108C20.5644 22.3718 20.4185 22.8394 20.5517 23.2664L22.2726 28.7842C22.4058 29.211 22.7876 29.5 23.2184 29.5H28.7876C29.2184 29.5 29.6002 29.211 29.7334 28.7842L31.4542 23.2664C31.5874 22.8394 31.4416 22.3718 31.093 22.108L26.5876 18.6979Z" fill="#C3B2E7"/>
<path d="M25.4174 18.6979C25.766 18.434 26.238 18.434 26.5866 18.6979L31.092 22.108C31.4406 22.3718 31.5864 22.8394 31.4532 23.2664L29.7324 28.7842C29.5992 29.211 29.2174 29.5 28.7866 29.5H23.2174C22.7866 29.5 22.4048 29.211 22.2716 28.7842L20.5507 23.2664C20.4176 22.8394 20.5634 22.3718 20.9119 22.108L25.4174 18.6979Z" stroke="#C3B2E7" stroke-width="3"/>
<path d="M26.002 18V10M32.002 22L40.002 19M30.002 30L34.002 36M22.002 29L18.002 34M20.002 23L12.002 21" stroke="#C3B2E7" stroke-width="3" stroke-linecap="round" stroke-linejoin="round"/>
<path d="M20.002 5L26.035 9.24482L32.002 5M6.00195 25.5996L12.3951 20.8776L9.11291 13.4409M40.9426 37.7062L33.2336 36.311L30.533 44M42.0616 12.3917L39.609 18.7796L46.002 23.5014M18.0218 42.8118L18.1048 34.333L10.0086 34.42" stroke="#C3B2E7" stroke-width="3" stroke-linejoin="round"/>
</g>
<defs>
<filter id="filter0_d_2190_1336" x="-2" y="0" width="56" height="56" filterUnits="userSpaceOnUse" color-interpolation-filters="sRGB">
<feFlood flood-opacity="0" result="BackgroundImageFix"/>
<feColorMatrix in="SourceAlpha" type="matrix" values="0 0 0 0 0 0 0 0 0 0 0 0 0 0 0 0 0 0 127 0" result="hardAlpha"/>
<feOffset dy="4"/>
<feGaussianBlur stdDeviation="2"/>
<feComposite in2="hardAlpha" operator="out"/>
<feColorMatrix type="matrix" values="0 0 0 0 0 0 0 0 0 0 0 0 0 0 0 0 0 0 0.25 0"/>
<feBlend mode="normal" in2="BackgroundImageFix" result="effect1_dropShadow_2190_1336"/>
<feBlend mode="normal" in="SourceGraphic" in2="effect1_dropShadow_2190_1336" result="shape"/>
</filter>
</defs>
</svg>
