<svg width="52" height="54" viewBox="0 0 52 54" fill="none" xmlns="http://www.w3.org/2000/svg">
<g filter="url(#filter0_d_2190_1338)">
<path opacity="0.4" d="M36 24C36 29.5228 31.5228 34 26 34C20.4772 34 16 29.5228 16 24C16 18.4772 20.4772 14 26 14C31.5228 14 36 18.4772 36 24Z" fill="#FEDF6F"/>
<path d="M36 24C36 29.5228 31.5228 34 26 34C20.4772 34 16 29.5228 16 24C16 18.4772 20.4772 14 26 14C31.5228 14 36 18.4772 36 24Z" stroke="#FEDF6F" stroke-width="3"/>
<path d="M26 4C25.2454 4.66666 24.189 6.4 26 8M26 40C26.7546 40.6666 27.811 42.4 26 44M41 9.00542C39.937 8.93964 37.8506 9.44586 38.0084 11.9969M12.9915 35C13.0573 36.063 12.5511 38.1494 10 37.9916M12.0054 9C11.9396 10.064 12.4463 12.1526 15 11.9946M38 35.0052C39.063 34.943 41.1494 35.4216 40.9916 37.8336M46 24C45.3334 23.2454 43.6 22.189 42 24M10 23C9.33334 23.7546 7.6 24.811 6 23" stroke="#FEDF6F" stroke-width="3" stroke-linecap="round"/>
</g>
<defs>
<filter id="filter0_d_2190_1338" x="-2" y="0" width="56" height="56" filterUnits="userSpaceOnUse" color-interpolation-filters="sRGB">
<feFlood flood-opacity="0" result="BackgroundImageFix"/>
<feColorMatrix in="SourceAlpha" type="matrix" values="0 0 0 0 0 0 0 0 0 0 0 0 0 0 0 0 0 0 127 0" result="hardAlpha"/>
<feOffset dy="4"/>
<feGaussianBlur stdDeviation="2"/>
<feComposite in2="hardAlpha" operator="out"/>
<feColorMatrix type="matrix" values="0 0 0 0 0 0 0 0 0 0 0 0 0 0 0 0 0 0 0.25 0"/>
<feBlend mode="normal" in2="BackgroundImageFix" result="effect1_dropShadow_2190_1338"/>
<feBlend mode="normal" in="SourceGraphic" in2="effect1_dropShadow_2190_1338" result="shape"/>
</filter>
</defs>
</svg>
