<svg width="52" height="52" viewBox="0 0 52 52" fill="none" xmlns="http://www.w3.org/2000/svg">
<g filter="url(#filter0_d_2190_1337)">
<path opacity="0.4" d="M37 23C37 16.9249 32.0752 12 26 12C20.2465 12 15.5247 16.4172 15.0408 22.0454C9.96796 22.5282 6 26.8006 6 32C6 37.5228 10.4772 42 16 42H37C41.9706 42 46 37.9706 46 33C46 28.0294 41.9706 24 37 24L36.9552 24.0002C36.9848 23.6708 37 23.3372 37 23Z" fill="#B8CEDC"/>
<path d="M36.9552 24.0002C36.97 24 36.985 24 37 24C41.9706 24 46 28.0294 46 33C46 37.9706 41.9706 42 37 42H16C10.4772 42 6 37.5228 6 32C6 26.8006 9.96796 22.5282 15.0408 22.0454M36.9552 24.0002C36.9848 23.6708 37 23.3372 37 23C37 16.9249 32.0752 12 26 12C20.2465 12 15.5247 16.4172 15.0408 22.0454M36.9552 24.0002C36.7506 26.269 35.8572 28.3392 34.4856 30M15.0408 22.0454C15.3565 22.0154 15.6765 22 16 22C18.2516 22 20.3295 22.7442 22.001 24" stroke="#B8CEDC" stroke-width="3" stroke-linecap="round" stroke-linejoin="round"/>
<path d="M7.91878 20.3874C6.4373 14.9436 9.71844 9.34794 15.2474 7.88926M7.91878 20.3874L6 20.8936M7.91878 20.3874C8.28718 21.7412 8.9154 22.958 9.73646 24M15.2474 7.88926L14.7333 6M15.2474 7.88926C19.3335 6.81126 23.5036 8.29438 26 11.3392M8.953 12.6459L6.9288 11.4926M24.2814 6.9145L23.114 8.90988" stroke="#B8CEDC" stroke-width="3" stroke-linecap="round"/>
</g>
<defs>
<filter id="filter0_d_2190_1337" x="-2" y="0" width="56" height="56" filterUnits="userSpaceOnUse" color-interpolation-filters="sRGB">
<feFlood flood-opacity="0" result="BackgroundImageFix"/>
<feColorMatrix in="SourceAlpha" type="matrix" values="0 0 0 0 0 0 0 0 0 0 0 0 0 0 0 0 0 0 127 0" result="hardAlpha"/>
<feOffset dy="4"/>
<feGaussianBlur stdDeviation="2"/>
<feComposite in2="hardAlpha" operator="out"/>
<feColorMatrix type="matrix" values="0 0 0 0 0 0 0 0 0 0 0 0 0 0 0 0 0 0 0.25 0"/>
<feBlend mode="normal" in2="BackgroundImageFix" result="effect1_dropShadow_2190_1337"/>
<feBlend mode="normal" in="SourceGraphic" in2="effect1_dropShadow_2190_1337" result="shape"/>
</filter>
</defs>
</svg>
