<svg width="52" height="50" viewBox="0 0 52 50" fill="none" xmlns="http://www.w3.org/2000/svg">
<g filter="url(#filter0_d_2190_1333)">
<path opacity="0.4" d="M23.4368 13.7217L32 31.9982C27.6666 31.9982 26.3478 29.7124 21.8261 27.4266C18.2087 25.5982 13.1594 25.9028 11.6522 26.2838L17.7148 21.9976C18.3317 21.5614 18.6402 21.3434 18.7387 21.0114C18.8373 20.6794 18.6979 20.3284 18.4189 19.6262L17.5704 17.49C17.2531 16.6912 17.0944 16.2918 16.8077 16.002C16.7078 15.9011 16.5974 15.8111 16.4784 15.7335C16.137 15.5109 15.7138 15.4358 14.8675 15.2857L8.3663 14.1322C6.9974 13.8894 6 12.6994 6 11.3091C6 9.56254 7.54836 8.22174 9.27702 8.4714L18.0686 9.74114C19.6521 9.96984 20.4438 10.0842 21.1042 10.4616C21.3795 10.619 21.6351 10.8085 21.8656 11.0262C22.4186 11.5485 22.758 12.2729 23.4368 13.7217Z" fill="#B8CEDC"/>
<path d="M23.4368 13.7217L32 31.9982C27.6666 31.9982 26.3478 29.7124 21.8261 27.4266C18.2087 25.5982 13.1594 25.9028 11.6522 26.2838L17.7148 21.9976C18.3317 21.5614 18.6402 21.3434 18.7387 21.0114C18.8373 20.6794 18.6979 20.3284 18.4189 19.6262L17.5704 17.49C17.2531 16.6912 17.0944 16.2918 16.8077 16.002C16.7078 15.9011 16.5974 15.8111 16.4784 15.7335C16.137 15.5109 15.7138 15.4358 14.8675 15.2857L8.3663 14.1322C6.9974 13.8894 6 12.6994 6 11.3091C6 9.56254 7.54836 8.22174 9.27702 8.4714L18.0686 9.74114C19.6521 9.96984 20.4438 10.0842 21.1042 10.4616C21.3795 10.619 21.6351 10.8085 21.8656 11.0262C22.4186 11.5485 22.758 12.2729 23.4368 13.7217Z" stroke="#B8CEDC" stroke-width="3" stroke-linecap="round" stroke-linejoin="round"/>
<path d="M40 26.0039C43.3137 26.0039 46 23.3176 46 20.0039C46 16.6902 43.3137 14.0039 40 14.0039C36.6863 14.0039 34 16.6902 34 20.0039C34 23.3176 36.6863 26.0039 40 26.0039Z" stroke="#B8CEDC" stroke-width="3" stroke-linecap="round" stroke-linejoin="round"/>
<path d="M6 36.1686C8.11112 29.1054 17.537 32.3472 25 36.1686C32.463 39.99 40 42.4216 44 36.1686" stroke="#B8CEDC" stroke-width="3" stroke-linecap="round" stroke-linejoin="round"/>
</g>
<defs>
<filter id="filter0_d_2190_1333" x="-2" y="0" width="56" height="56" filterUnits="userSpaceOnUse" color-interpolation-filters="sRGB">
<feFlood flood-opacity="0" result="BackgroundImageFix"/>
<feColorMatrix in="SourceAlpha" type="matrix" values="0 0 0 0 0 0 0 0 0 0 0 0 0 0 0 0 0 0 127 0" result="hardAlpha"/>
<feOffset dy="4"/>
<feGaussianBlur stdDeviation="2"/>
<feComposite in2="hardAlpha" operator="out"/>
<feColorMatrix type="matrix" values="0 0 0 0 0 0 0 0 0 0 0 0 0 0 0 0 0 0 0.25 0"/>
<feBlend mode="normal" in2="BackgroundImageFix" result="effect1_dropShadow_2190_1333"/>
<feBlend mode="normal" in="SourceGraphic" in2="effect1_dropShadow_2190_1333" result="shape"/>
</filter>
</defs>
</svg>
